<svg id="Capa_1" enable-background="new 0 0 512.081 512.081" width="111" viewBox="0 0 512.081 512.081" xmlns="http://www.w3.org/2000/svg"><g><g><circle cx="247.867" cy="273.78" fill="#ffd88a" r="167.498"/></g><g><path d="m405.879 218.112c-14.653 22.428-41.49 35.511-69.721 31.28-5.698-.854-11.127-2.376-16.244-4.465-6.125 22.673-28.406 37.652-52.196 34.087-25.611-3.839-43.258-27.709-39.42-53.32 3.564-23.778 24.417-40.688 47.89-39.897-.485-5.502-.36-11.141.494-16.839 3.289-21.945 16.34-40.013 34.074-50.46 44.987 18.178 79.343 54.955 95.123 99.614z" fill="#ffc135"/></g><g><circle cx="157.726" cy="377.533" fill="#ffc135" r="30.079"/></g><g><circle cx="435.792" cy="103.959" fill="#00d5f5" r="33.22"/></g><g><path d="m424.911 260.29c-1.858-25.015-9.031-49.284-21.164-71.443-26.515-48.511-74.882-82.407-129.57-90.603-44.908-6.73-88.465 4.08-123.714 27.261-49.536-14.566-129.981-31.698-147.428 4.03-10.691 21.896 6.896 52.63 52.274 91.345 5.982 5.104 12.358 10.252 19.072 15.422-13.329 61.881 8.08 127.438 55.17 169.706 31.721 31.469 80.873 46.71 124.712 45.176 5.519-.193 9.837-4.825 9.644-10.344-.193-5.52-4.788-9.816-10.345-9.645-27.057.948-54.252-5.131-78.274-17.631 11.776-5.77 20.13-17.117 22.074-30.089 1.587-10.587-1.044-21.159-7.408-29.768-12.976-17.551-38.478-21.395-56.055-8.401-6.792 5.022-11.71 11.898-14.267 19.774-22.853-32.087-33.81-72.702-27.523-114.644.045-.302.1-.602.147-.904 36.343 25.908 80.651 51.924 128.737 75.406 49.393 24.119 98.449 43.459 142.108 56.185-9.236 9.91-19.795 18.694-31.513 26.057-4.676 2.938-6.085 9.111-3.147 13.788 2.938 4.675 9.107 6.085 13.788 3.147 16.201-10.179 30.444-22.762 42.364-37.155 23.888 5.988 48.668 10.984 73.398 10.983 27.067-.001 44.199-7.106 51.121-21.28 17.117-35.057-43.581-86.826-84.201-116.373zm-287.042 114.267c.795-5.305 3.607-9.981 7.92-13.17 8.804-6.507 21.586-4.579 28.083 4.209 3.188 4.312 4.506 9.609 3.711 14.913-1.641 10.948-11.879 18.522-22.833 16.881-10.759-1.613-18.494-12.069-16.881-22.833zm256.794-157.924c-13.368 17.23-35.23 26.141-57.021 22.869-4.776-.716-9.47-2.006-13.948-3.834-5.464-2.23-11.9.979-13.433 6.651-4.879 18.059-22.536 29.581-41.06 26.805-19.872-2.979-33.995-22.052-31.012-41.947 2.714-18.106 18.246-31.407 36.407-31.407 6.25 0 12.169-3.888 11.554-10.852-.43-4.871-.287-9.742.422-14.478 2.482-16.566 11.554-31.146 25.146-40.678 37.765 16.716 67.939 48.418 82.945 86.871zm-326.372-10.968c-41.773-35.639-51.579-58.558-47.283-67.354 3.286-6.729 17.164-10.428 37.134-9.924 19.303.5 44.084 4.729 72.419 12.304-22.512 19.811-40.127 45.353-50.349 74.785-4.13-3.286-8.109-6.559-11.921-9.811zm161.477 101.3c-50.222-24.524-96.127-51.782-132.722-78.637 22.147-74.048 97.791-121.754 174.165-110.304 6.358.953 12.6 2.28 18.704 3.958-12.326 12.127-20.497 27.974-23.123 45.496-.442 2.953-.719 5.942-.829 8.949-24.187 3.707-43.805 22.773-47.554 47.786-4.649 31.021 16.805 60.041 47.826 64.691 24.321 3.647 48.938-9.283 59.639-31.449 2.897.771 5.837 1.383 8.801 1.827 24.497 3.67 49.059-4.234 66.805-20.614 9.835 43.079.696 89.396-24.677 125.554-44.495-12.286-95.499-32.091-147.035-57.257zm261.371 60.921c-4.297 8.797-28.398 15.157-82.19 4.13-3.794-.778-7.665-1.634-11.593-2.549 13.313-20.792 22.298-44.362 26.048-69.377.739-4.931 1.259-9.861 1.587-14.781 22.407 17.193 40.159 33.625 51.859 48.073 12.345 15.245 17.552 27.821 14.289 34.504z"/><path d="m435.829 147.182c4.665 0 9.409-.762 14.061-2.367 22.255-7.679 34.46-32.636 26.759-54.954-7.669-22.245-32.659-34.456-54.954-26.758-22.256 7.679-34.46 32.636-26.759 54.954 6.167 17.876 22.963 29.125 40.893 29.125zm-20.914-53.388c2.716-5.576 7.439-9.761 13.304-11.784 11.956-4.127 25.404 2.439 29.523 14.375 4.125 11.952-2.445 25.407-14.376 29.524-12.102 4.175-25.349-2.272-29.524-14.375-2.024-5.863-1.642-12.163 1.073-17.74z"/><path d="m306.993 429.885c-2.092-5.026-8.026-7.5-13.061-5.41-5.027 2.087-7.498 8.028-5.409 13.06 2.087 5.029 8.023 7.5 13.06 5.41 5.046-2.094 7.479-8.016 5.41-13.06z"/></g></g></svg>
