<svg xmlns="http://www.w3.org/2000/svg" width="1200" height="630" viewBox="0 0 1200 630">
  <defs>
    <style>
      .cls-1 {
        fill: #fff;
      }

      .cls-1, .cls-2 {
        fill-rule: evenodd;
      }

      .cls-2 {
        fill: #89c623;
      }
    </style>
  </defs>
  <path id="Fond_1" data-name="Fond 1" class="cls-1" d="M181,160c41.611,0.448,42.507,47.175,11,56-22.215,6.222-46.787-16.041-38-37,3.014-7.191,10.769-14.042,18-17C174.818,160.847,178.687,161.388,181,160Zm430,73c11.759,0.571,24.991,2.095,33,7,4.573,2.8,7.7,8,13,10,10.4-16.889,38.994-21.853,48,0,5.159,12.519,3,33.305,3,50,0,34.578,4.368,88.479-4,116-12.2,40.119-38.11,46.771-81,56-10.558,2.272-25.654-.086-34-2-24.961-5.725-55.877-7.3-56-37l3-8c2.763-4.12,8.428-5.643,12-9,21.485-.424,35.317,7.59,55,12,6.17,1.382,17.406.242,22-1,22.672-6.13,32.092-16.249,32-45h-2c-2.158,6.177-7.957,8.632-13,12-27.592,18.426-68.886,8.082-88-11-35.682-35.623-31.188-104.732,8-133a99.183,99.183,0,0,1,29-14Zm403,1c19.25,0.228,30.6,9.447,30,30-5.13,5.113-7.76,10.8-15,14-13.78,6.082-39.973,7.572-45,22-4.3,5.935-3,19.056-3,29,0,36.683,8.1,67.123-24,74-6.187,1.325-15.359-.624-20-4-9.408-6.843-10-23.664-10-40V277c0-16.232,1.131-33.834,13-38,2.847-2.66,5.211-1.846,10-3,18.57-4.474,20.646,9.547,31,14,4.593-5.828,14.4-11.5,22-14C1006.56,234.828,1011.22,235.793,1014,234Zm-834,1c10.19-.082,19.723,2.181,24,8,6.565,8.932,6,23.254,6,39v73c0,13.8,1.259,29.224-4,38-3.89,6.49-11.143,9.4-20,11-9.487,1.709-20.621-4.931-24-10-5.7-8.557-5-22.858-5-37V287c0-12.1-1.538-26.69,2-36,2.965-7.8,9.479-9.882,15-15C176.72,236.007,178.6,235.961,180,235Zm84,0c8.693-.077,15.727,1.422,21,5,3.928,2.665,5.247,7.974,10,10,12.848-17.089,53.427-18.954,76-9,8.188,3.611,13.2,12.742,21,16,15.963-23.126,67.726-30.1,94-11,19.823,14.414,21,41.183,21,76,0,25.628,6.105,71.243-13,78-10.393,9.305-30.92,1.242-36-7-9.43-15.3-5-50.877-5-74V300c-2.845-12.271-7.658-15.806-15-23-47.012-3.15-37,34.8-37,79,0,18.852.678,39.039-13,44-8.931,8-29.87,2.517-35-5-10.156-14.881-6-50.037-6-74V302c-3.325-14.87-6.175-16.351-15-25-45.135-2.936-37.007,31.215-37,74,0,25.487,1.265,44.591-18,51-2.39.8-7.742,2.587-11,2-7.41-1.335-15.462-3.794-19-9-11.446-16.841-6-75.832-6-104,0-20.658-2.185-46.671,13-52C256.529,236.78,261.086,236.984,264,235Zm495,0c38.832,0.831,30,42.8,30,81,0,25.178,3.934,52.708,35,45l11-4c3.852-6.029,7.987-10.476,10-19V320c0-25.8-6.132-74.223,13-81,11.94-10.979,33.788.071,38,10,5.184,12.221,3,33.39,3,50,0,60.7-2.435,89.187-49,104-9.715,3.09-20.811,3-33,3-44.209,0-70.848-16.139-80-51-4.654-17.727-1-55.09-1-76,0-12.488-.725-25.1,4-33C745.174,237.347,751.151,239.951,759,235ZM612,280c-3.2,2.423-7.455,2.777-11,5-7.646,4.794-12.6,15.094-15,25-6.64,27.363,15.433,56.875,42,50,16.8-4.348,36.491-28.1,27-54C648.509,288.29,637.51,279.4,612,280Z"/>
  <path id="Forme_1" data-name="Forme 1" class="cls-2" d="M178,160h11c25.73,5.145,26,24,26,24v9c-6.111,24.119-26,24-26,24l-9,1c-28.625-7.236-28-26-28-26v-8C156.985,162.132,178,160,178,160Z"/>
</svg>
