<svg xmlns="http://www.w3.org/2000/svg" width="1400" height="630" viewBox="0 0 1400 630">
  <defs>
    <style>
      .cls-1 {
        fill: #b8c1ec;
      }

      .cls-1, .cls-2 {
        fill-rule: evenodd;
      }

      .cls-2 {
        fill: #89c623;
      }
    </style>
  </defs>
  <path id="Fond_1" data-name="Fond 1" class="cls-1" d="M467,159c41.611,0.448,42.507,47.175,11,56-22.215,6.222-46.787-16.041-38-37,3.014-7.191,10.769-14.042,18-17C460.818,159.847,464.687,160.388,467,159Zm430,73c11.759,0.571,24.991,2.095,33,7,4.573,2.8,7.7,8,13,10,10.4-16.889,38.994-21.853,48,0,5.159,12.519,3,33.305,3,50,0,34.578,4.368,88.479-4,116-12.2,40.119-38.11,46.77-81,56-10.558,2.272-25.654-.086-34-2-24.961-5.725-55.877-7.3-56-37l3-8c2.763-4.12,8.428-5.643,12-9,21.485-.424,35.317,7.59,55,12,6.17,1.382,17.406.242,22-1,22.672-6.13,32.092-16.25,32-45h-2c-2.158,6.177-7.957,8.632-13,12-27.592,18.426-68.886,8.082-88-11-35.682-35.623-31.188-104.732,8-133a99.183,99.183,0,0,1,29-14Zm403,1c19.25,0.228,30.6,9.447,30,30-5.13,5.113-7.76,10.8-15,14-13.78,6.082-39.97,7.572-45,22-4.3,5.935-3,19.056-3,29,0,36.683,8.1,67.123-24,74-6.19,1.325-15.36-.624-20-4-9.41-6.843-10-23.664-10-40V276c0-16.232,1.13-33.834,13-38,2.85-2.66,5.21-1.846,10-3,18.57-4.475,20.65,9.547,31,14,4.59-5.828,14.4-11.5,22-14C1292.56,233.828,1297.22,234.793,1300,233Zm-834,1c10.19-.082,19.723,2.181,24,8,6.565,8.932,6,23.254,6,39v73c0,13.8,1.259,29.224-4,38-3.89,6.49-11.143,9.4-20,11-9.487,1.708-20.621-4.931-24-10-5.7-8.557-5-22.858-5-37V286c0-12.1-1.538-26.69,2-36,2.964-7.8,9.479-9.882,15-15C462.719,235.007,464.6,234.961,466,234Zm84,0c8.693-.077,15.726,1.422,21,5,3.928,2.665,5.247,7.974,10,10,12.848-17.089,53.427-18.954,76-9,8.188,3.611,13.205,12.742,21,16,15.963-23.126,67.726-30.1,94-11,19.823,14.414,21,41.183,21,76,0,25.628,6.105,71.243-13,78-10.393,9.305-30.92,1.242-36-7-9.43-15.3-5-50.877-5-74V299c-2.845-12.271-7.658-15.806-15-23-47.012-3.15-37,34.8-37,79,0,18.852.677,39.039-13,44-8.931,8-29.87,2.517-35-5-10.156-14.881-6-50.037-6-74V301c-3.326-14.87-6.175-16.351-15-25-45.135-2.936-37.007,31.215-37,74,0,25.487,1.265,44.591-18,51-2.39.8-7.742,2.587-11,2-7.41-1.335-15.462-3.794-19-9-11.446-16.841-6-75.832-6-104,0-20.658-2.185-46.671,13-52C542.529,235.78,547.086,235.984,550,234Zm495,0c38.83,0.831,30,42.8,30,81,0,25.178,3.93,52.708,35,45q5.505-2,11-4c3.85-6.029,7.99-10.476,10-19V319c0-25.8-6.13-74.223,13-81,11.94-10.979,33.79.071,38,10,5.18,12.22,3,33.39,3,50,0,60.7-2.44,89.187-49,104-9.71,3.09-20.81,3-33,3-44.21,0-70.85-16.139-80-51-4.65-17.727-1-55.09-1-76,0-12.488-.73-25.1,4-33C1031.17,236.347,1037.15,238.951,1045,234ZM898,279c-3.2,2.423-7.455,2.777-11,5-7.646,4.794-12.6,15.094-15,25-6.64,27.363,15.433,56.875,42,50,16.8-4.348,36.491-28.1,27-54C934.509,287.29,923.51,278.4,898,279Z"/>
  <path id="Forme_1" data-name="Forme 1" class="cls-2" d="M464,159h11c25.73,5.145,26,24,26,24v9c-6.111,24.119-26,24-26,24l-9,1c-28.625-7.236-28-26-28-26v-8C442.985,161.132,464,159,464,159Z"/>
  <path id="Fond_2" data-name="Fond 2" class="cls-1" d="M121.434,285.142c-9.819.65-15.967,5.532-22.147,9.744a63,63,0,0,0-25.69,34.55c-8.767,27.636,6.645,56.493,21.261,67.326,19.273,14.285,40.65,13.289,74.414,13.288H327.843c28.363-6.494,49.06-22.681,57.582-48.723,12.76-38.989-14.775-85.065-44.293-89.473,0.556-40.135-20.843-66.306-48.724-77.957-41.1-17.174-85.608,6-99.218,33.663-5.19-2.531-10.655-5.563-16.831-7.087-29.032-7.163-51.462,16.719-56.7,37.207C117.148,267.523,120.657,276.286,121.434,285.142Zm143.512,29.234v44.293c0,7.747.959,14.458-3.543,17.718-5.351,4.187-23.881,1.829-31.006.886a10.812,10.812,0,0,0-3.543-3.544V314.376H190.533c-1.746-2.452-5.007-4.933-3.544-7.973,1.545-7.494,11.154-12.926,15.946-17.718,13.534-13.534,27.612-26.853,40.75-40.75h4.43c13.454,14.182,27.8,27.8,41.636,41.636,4.761,4.761,14.071,9.651,15.06,17.718,0.66,1.077.121,0.878,0,3.543C296.649,316.132,278.471,314.52,264.946,314.376Z"/>
</svg>
